<?xml version="1.0"?>
<svg xmlns="http://www.w3.org/2000/svg" xmlns:xlink="http://www.w3.org/1999/xlink" xmlns:svgjs="http://svgjs.com/svgjs" version="1.1" width="512" height="512" x="0" y="0" viewBox="0 0 448 448" style="enable-background:new 0 0 512 512" xml:space="preserve" class=""><g><path xmlns="http://www.w3.org/2000/svg" d="m64 16c0-8.835938-7.164062-16-16-16s-16 7.164062-16 16v96h32zm0 0" fill="#2ec3b3" data-original="#000000" style="" class=""/><path xmlns="http://www.w3.org/2000/svg" d="m32 176h32v80h-32zm0 0" fill="#2ec3b3" data-original="#000000" style="" class=""/><path xmlns="http://www.w3.org/2000/svg" d="m231.9375 166.976562 27.566406-22.976562-27.566406-22.976562c-.515625 3.992187-3.914062 6.976562-7.9375 6.976562h-224v32h224c4.023438 0 7.421875 2.984375 7.9375 6.976562zm0 0" fill="#2ec3b3" data-original="#000000" style="" class=""/><path xmlns="http://www.w3.org/2000/svg" d="m336 272h-136v8c0 3.105469-1.796875 5.933594-4.609375 7.25s-6.132813.886719-8.519531-1.105469l-48-40c-1.820313-1.519531-2.875-3.769531-2.875-6.144531s1.054687-4.625 2.875-6.144531l48-40c2.386718-1.992188 5.707031-2.421875 8.519531-1.105469s4.609375 4.144531 4.609375 7.25v8h136v-184c0-13.253906-10.746094-24-24-24h-236.433594c2.875 4.84375 4.40625 10.367188 4.433594 16v96h136v-8c0-3.105469 1.796875-5.933594 4.609375-7.25s6.132813-.886719 8.519531 1.105469l48 40c1.820313 1.519531 2.875 3.769531 2.875 6.144531s-1.054687 4.625-2.875 6.144531l-48 40c-2.386718 1.992188-5.707031 2.421875-8.519531 1.105469s-4.609375-4.144531-4.609375-7.25v-8h-136v256c0 8.835938 7.164062 16 16 16s16-7.164062 16-16v-24c0-4.417969 3.582031-8 8-8h216zm-144-192h-80v-16h80zm0-32h-80v-16h80zm112 336h-160v-16h160zm0-32h-160v-16h160zm0-32h-48v-16h48zm0 0" fill="#2ec3b3" data-original="#000000" style="" class=""/><path xmlns="http://www.w3.org/2000/svg" d="m192 224c-1.03125-.003906-2.050781-.210938-3-.609375-.292969-.152344-.574219-.324219-.847656-.511719-.574219-.296875-1.113282-.660156-1.601563-1.085937-.257812-.289063-.496093-.59375-.710937-.914063-.390625-.449218-.722656-.941406-1-1.472656-.15625-.375-.277344-.765625-.367188-1.167969-.167968-.390625-.300781-.796875-.394531-1.214843l-27.582031 22.976562 27.566406 22.976562c.09375-.417968.226562-.824218.394531-1.214843.085938-.402344.210938-.792969.367188-1.167969.273437-.53125.609375-1.023438 1-1.472656.214843-.320313.453125-.625.710937-.914063.488282-.425781 1.027344-.789062 1.601563-1.085937.273437-.1875.554687-.359375.847656-.511719.953125-.402344 1.980469-.609375 3.015625-.609375h224v-32zm0 0" fill="#2ec3b3" data-original="#000000" style="" class=""/><path xmlns="http://www.w3.org/2000/svg" d="m360 416h-232v16c.007812 5.621094-1.472656 11.140625-4.296875 16h236.296875c8.835938 0 16-7.164062 16-16s-7.164062-16-16-16zm0 0" fill="#2ec3b3" data-original="#000000" style="" class=""/></g></svg>
